<svg xmlns="http://www.w3.org/2000/svg" width="1152" height="496" viewBox="0 0 1152 496">
  <g id="interconnection" transform="translate(-164 -377)">
    <path id="bg" d="M16,0H1136a16,16,0,0,1,16,16V480a16,16,0,0,1-16,16H16A16,16,0,0,1,0,480V16A16,16,0,0,1,16,0Z" transform="translate(164 377)" fill="none" opacity="0.1"/>
    <g id="cg" transform="translate(-96 7)">
      <g id="cdesign" transform="translate(569 376)" fill="#009688" style="mix-blend-mode: multiply;isolation: isolate">
        <path d="M 165 329.5 C 153.8385467529297 329.5 142.6842956542969 328.3755798339844 131.8470001220703 326.157958984375 C 121.2853775024414 323.9967041015625 110.8966217041016 320.7718811035156 100.9693298339844 316.572998046875 C 91.22216796875 312.4502563476562 81.82091522216797 307.3474731445312 73.02683258056641 301.4062805175781 C 64.31616973876953 295.5214538574219 56.12504196166992 288.7631530761719 48.68095779418945 281.319091796875 C 41.23687362670898 273.875 34.47854232788086 265.683837890625 28.59370803833008 256.9731750488281 C 22.65254211425781 248.1790771484375 17.54974937438965 238.7778778076172 13.42704200744629 229.0306701660156 C 9.228124618530273 219.1033782958984 6.003291606903076 208.7146301269531 3.842083215713501 198.1530456542969 C 1.624416708946228 187.3157501220703 0.5 176.1614532470703 0.5 165 C 0.5 153.8385467529297 1.624416708946228 142.6842956542969 3.842083215713501 131.8470001220703 C 6.003291606903076 121.2853775024414 9.228124618530273 110.8966217041016 13.42704200744629 100.9693298339844 C 17.54974937438965 91.22216796875 22.65254211425781 81.82091522216797 28.59370803833008 73.02683258056641 C 34.47854232788086 64.31616973876953 41.23687362670898 56.12504196166992 48.68095779418945 48.68095779418945 C 56.12504196166992 41.23687362670898 64.31616973876953 34.47854232788086 73.02683258056641 28.59370803833008 C 81.82091522216797 22.65254211425781 91.22216796875 17.54974937438965 100.9693298339844 13.42704200744629 C 110.8966217041016 9.228124618530273 121.2853775024414 6.003291606903076 131.8470001220703 3.842083215713501 C 142.6842956542969 1.624416708946228 153.8385467529297 0.5 165 0.5 C 176.1614532470703 0.5 187.3157501220703 1.624416708946228 198.1530456542969 3.842083215713501 C 208.7146301269531 6.003291606903076 219.1033782958984 9.228124618530273 229.0306701660156 13.42704200744629 C 238.7778778076172 17.54974937438965 248.1790771484375 22.65254211425781 256.9731750488281 28.59370803833008 C 265.683837890625 34.47854232788086 273.875 41.23687362670898 281.319091796875 48.68095779418945 C 288.7631530761719 56.12504196166992 295.5214538574219 64.31616973876953 301.4062805175781 73.02683258056641 C 307.3474731445312 81.82091522216797 312.4502563476562 91.22216796875 316.572998046875 100.9693298339844 C 320.7718811035156 110.8966217041016 323.9967041015625 121.2853775024414 326.157958984375 131.8470001220703 C 328.3755798339844 142.6842956542969 329.5 153.8385467529297 329.5 165 C 329.5 176.1614532470703 328.3755798339844 187.3157501220703 326.157958984375 198.1530456542969 C 323.9967041015625 208.7146301269531 320.7718811035156 219.1033782958984 316.572998046875 229.0306701660156 C 312.4502563476562 238.7778778076172 307.3474731445312 248.1790771484375 301.4062805175781 256.9731750488281 C 295.5214538574219 265.683837890625 288.7631530761719 273.875 281.319091796875 281.319091796875 C 273.875 288.7631530761719 265.683837890625 295.5214538574219 256.9731750488281 301.4062805175781 C 248.1790771484375 307.3474731445312 238.7778778076172 312.4502563476562 229.0306701660156 316.572998046875 C 219.1033782958984 320.7718811035156 208.7146301269531 323.9967041015625 198.1530456542969 326.157958984375 C 187.3157501220703 328.3755798339844 176.1614532470703 329.5 165 329.5 Z" stroke="none"/>
        <path d="M 165 1 C 153.8721618652344 1 142.7515869140625 2.121002197265625 131.9472045898438 4.3319091796875 C 121.4179534912109 6.48651123046875 111.0610046386719 9.701507568359375 101.1640777587891 13.88751220703125 C 91.44662475585938 17.9976806640625 82.07408142089844 23.08493041992188 73.3067626953125 29.008056640625 C 64.62240600585938 34.87503051757812 56.45608520507812 41.6129150390625 49.03448486328125 49.03448486328125 C 41.6129150390625 56.45608520507812 34.87503051757812 64.62240600585938 29.008056640625 73.3067626953125 C 23.08493041992188 82.07408142089844 17.9976806640625 91.44662475585938 13.88751220703125 101.1640777587891 C 9.701507568359375 111.0610046386719 6.48651123046875 121.4179534912109 4.3319091796875 131.9472045898438 C 2.121002197265625 142.7515869140625 1 153.8721618652344 1 165 C 1 176.1278381347656 2.121002197265625 187.2484130859375 4.3319091796875 198.0527954101562 C 6.48651123046875 208.58203125 9.701507568359375 218.9389953613281 13.88751220703125 228.8358764648438 C 17.9976806640625 238.5533447265625 23.08493041992188 247.9259185791016 29.008056640625 256.6932373046875 C 34.87503051757812 265.3775329589844 41.6129150390625 273.5439147949219 49.03448486328125 280.9655151367188 C 56.45608520507812 288.3870849609375 64.62240600585938 295.1249694824219 73.3067626953125 300.991943359375 C 82.07408142089844 306.9150390625 91.44662475585938 312.0023193359375 101.1640777587891 316.1124572753906 C 111.0610046386719 320.2984924316406 121.4179534912109 323.5134887695312 131.9472045898438 325.6680908203125 C 142.7515869140625 327.8789978027344 153.8721618652344 329 165 329 C 176.1278381347656 329 187.2484130859375 327.8789978027344 198.0527954101562 325.6680908203125 C 208.58203125 323.5134887695312 218.9389953613281 320.2984924316406 228.8358764648438 316.1124572753906 C 238.5533447265625 312.0023193359375 247.9259185791016 306.9150390625 256.6932373046875 300.991943359375 C 265.3775329589844 295.1249694824219 273.5439147949219 288.3870849609375 280.9655151367188 280.9655151367188 C 288.3870849609375 273.5439147949219 295.1249694824219 265.3775329589844 300.991943359375 256.6932373046875 C 306.9150390625 247.9259185791016 312.0023193359375 238.5533447265625 316.1124572753906 228.8358764648438 C 320.2984924316406 218.9389953613281 323.5134887695312 208.58203125 325.6680908203125 198.0527954101562 C 327.8789978027344 187.2484130859375 329 176.1278381347656 329 165 C 329 153.8721618652344 327.8789978027344 142.7515869140625 325.6680908203125 131.9472045898438 C 323.5134887695312 121.4179534912109 320.2984924316406 111.0610046386719 316.1124572753906 101.1640777587891 C 312.0023193359375 91.44662475585938 306.9150390625 82.07408142089844 300.991943359375 73.3067626953125 C 295.1249694824219 64.62240600585938 288.3870849609375 56.45608520507812 280.9655151367188 49.03448486328125 C 273.5439147949219 41.6129150390625 265.3775329589844 34.87503051757812 256.6932373046875 29.008056640625 C 247.9259185791016 23.08493041992188 238.5533447265625 17.9976806640625 228.8358764648438 13.88751220703125 C 218.9389953613281 9.701507568359375 208.58203125 6.48651123046875 198.0527954101562 4.3319091796875 C 187.2484130859375 2.121002197265625 176.1278381347656 1 165 1 M 165 0 C 256.126953125 0 330 73.87298583984375 330 165 C 330 256.126953125 256.126953125 330 165 330 C 73.87298583984375 330 0 256.126953125 0 165 C 0 73.87298583984375 73.87298583984375 0 165 0 Z" stroke="none" fill="#707070"/>
      </g>
      <path id="ctext" d="M48.779,27.353a12.005,12.005,0,0,1-5.205.965,8.774,8.774,0,0,1-6.589-2.463,9,9,0,0,1-2.4-6.563,9.619,9.619,0,0,1,2.7-7.084,9.436,9.436,0,0,1,7-2.717,13.094,13.094,0,0,1,4.494.673v3.948a7.963,7.963,0,0,0-4.164-1.092,5.524,5.524,0,0,0-4.139,1.612A5.983,5.983,0,0,0,38.9,19a5.868,5.868,0,0,0,1.485,4.208,5.247,5.247,0,0,0,4,1.568,8.53,8.53,0,0,0,4.393-1.168Zm8.976.965a6.988,6.988,0,0,1-5.11-1.822,6.6,6.6,0,0,1-1.86-4.945,6.6,6.6,0,0,1,1.93-5.046,7.291,7.291,0,0,1,5.218-1.822A6.9,6.9,0,0,1,63.01,16.5a6.476,6.476,0,0,1,1.841,4.818,6.874,6.874,0,0,1-1.9,5.116A7.066,7.066,0,0,1,57.754,28.317Zm.1-10.562a2.676,2.676,0,0,0-2.209.978A4.311,4.311,0,0,0,54.86,21.5q0,3.745,3.021,3.745,2.882,0,2.882-3.847Q60.763,17.755,57.856,17.755ZM88.1,28h-4V20.586q0-2.831-2.082-2.831a1.913,1.913,0,0,0-1.612.851,3.5,3.5,0,0,0-.622,2.12V28H75.769V20.51q0-2.755-2.044-2.755a1.959,1.959,0,0,0-1.644.813,3.575,3.575,0,0,0-.616,2.209V28H67.454V15h4.012v2.031h.051a4.926,4.926,0,0,1,4.2-2.349,3.743,3.743,0,0,1,3.771,2.425,4.809,4.809,0,0,1,4.367-2.425q4.24,0,4.24,5.23Zm23.816,0h-4V20.586q0-2.831-2.082-2.831a1.913,1.913,0,0,0-1.612.851,3.5,3.5,0,0,0-.622,2.12V28H99.585V20.51q0-2.755-2.044-2.755a1.959,1.959,0,0,0-1.644.813,3.575,3.575,0,0,0-.616,2.209V28H91.27V15h4.012v2.031h.051a4.926,4.926,0,0,1,4.2-2.349,3.743,3.743,0,0,1,3.771,2.425,4.809,4.809,0,0,1,4.367-2.425q4.24,0,4.24,5.23Zm15.526,0h-4V26.02h-.063a4.537,4.537,0,0,1-3.974,2.3q-4.52,0-4.52-5.472V15h4v7.49q0,2.755,2.184,2.755a2.16,2.16,0,0,0,1.727-.755,3.046,3.046,0,0,0,.647-2.05V15h4Zm15.933,0h-4V20.776q0-3.021-2.158-3.021a2.141,2.141,0,0,0-1.714.8,3.047,3.047,0,0,0-.673,2.031V28h-4.012V15h4.012v2.057h.051a4.6,4.6,0,0,1,4.177-2.374q4.316,0,4.316,5.357Zm5.205-15.057a2.343,2.343,0,0,1-1.663-.6,1.943,1.943,0,0,1-.647-1.479,1.874,1.874,0,0,1,.647-1.473,2.716,2.716,0,0,1,3.333,0,1.882,1.882,0,0,1,.641,1.473,1.935,1.935,0,0,1-.641,1.5A2.383,2.383,0,0,1,148.577,12.943ZM150.557,28h-4.012V15h4.012Zm11.235-.152a5.93,5.93,0,0,1-2.679.47q-4.24,0-4.24-4.405V17.958h-2.107V15h2.107V12.194l4-1.143V15h2.92v2.958h-2.92v5.256q0,2.031,1.612,2.031a2.718,2.718,0,0,0,1.308-.368ZM176.43,15l-5.281,14.041q-1.9,5.065-5.738,5.065a7.352,7.352,0,0,1-2.4-.33v-3.2a3.374,3.374,0,0,0,1.739.47,2.173,2.173,0,0,0,2.158-1.46l.686-1.612L162.313,15h4.443l2.425,7.909a10.278,10.278,0,0,1,.355,1.739h.051a12.127,12.127,0,0,1,.419-1.714L172.457,15ZM24.943,63V44.795h6.449q9.7,0,9.7,8.874a8.973,8.973,0,0,1-2.647,6.792A9.761,9.761,0,0,1,31.393,63Zm4.1-14.866v11.54h2.031a5.489,5.489,0,0,0,4.183-1.6,6.069,6.069,0,0,0,1.517-4.354,5.506,5.506,0,0,0-1.5-4.094,5.735,5.735,0,0,0-4.221-1.492ZM55.4,57.643h-8.48q.2,2.831,3.567,2.831a6.965,6.965,0,0,0,3.771-1.016v2.895a9.9,9.9,0,0,1-4.685.965A6.051,6.051,0,0,1,42.945,56.7a6.957,6.957,0,0,1,1.879-5.129,6.26,6.26,0,0,1,4.621-1.892,5.681,5.681,0,0,1,4.4,1.688A6.5,6.5,0,0,1,55.4,55.954ZM51.68,55.18q0-2.793-2.26-2.793a2.158,2.158,0,0,0-1.669.8,3.63,3.63,0,0,0-.857,1.993ZM70.164,50,65.327,63h-4.57L56.148,50h4.291l2.26,8.011a11.7,11.7,0,0,1,.444,2.311h.051a13.112,13.112,0,0,1,.47-2.234L65.975,50ZM83.3,57.643h-8.48q.2,2.831,3.567,2.831a6.965,6.965,0,0,0,3.771-1.016v2.895a9.9,9.9,0,0,1-4.685.965A6.051,6.051,0,0,1,70.85,56.7a6.957,6.957,0,0,1,1.879-5.129,6.26,6.26,0,0,1,4.621-1.892,5.681,5.681,0,0,1,4.4,1.688A6.5,6.5,0,0,1,83.3,55.954Zm-3.72-2.463q0-2.793-2.26-2.793a2.158,2.158,0,0,0-1.669.8A3.63,3.63,0,0,0,74.8,55.18ZM89.7,63H85.69V43.754H89.7Zm9.572.317a6.988,6.988,0,0,1-5.11-1.822,6.6,6.6,0,0,1-1.86-4.945,6.6,6.6,0,0,1,1.93-5.046,7.291,7.291,0,0,1,5.218-1.822A6.9,6.9,0,0,1,104.53,51.5a6.476,6.476,0,0,1,1.841,4.818,6.874,6.874,0,0,1-1.9,5.116A7.066,7.066,0,0,1,99.274,63.317Zm.1-10.562a2.676,2.676,0,0,0-2.209.978A4.311,4.311,0,0,0,96.38,56.5q0,3.745,3.021,3.745,2.882,0,2.882-3.847Q102.283,52.755,99.376,52.755Zm13.66,8.734h-.051v7.49h-4.012V50h4.012v1.955h.051a5.1,5.1,0,0,1,8.081-.54,7.378,7.378,0,0,1,1.377,4.716,8,8,0,0,1-1.606,5.218,5.236,5.236,0,0,1-4.272,1.968A4.048,4.048,0,0,1,113.036,61.489Zm-.114-5.332V57.2a3.309,3.309,0,0,0,.711,2.2,2.314,2.314,0,0,0,1.866.851,2.46,2.46,0,0,0,2.126-1.06,5.118,5.118,0,0,0,.755-3q0-3.428-2.666-3.428a2.5,2.5,0,0,0-2.012.933A3.722,3.722,0,0,0,112.922,56.157ZM145.739,63h-4V55.586q0-2.831-2.082-2.831a1.913,1.913,0,0,0-1.612.851,3.5,3.5,0,0,0-.622,2.12V63h-4.012V55.51q0-2.755-2.044-2.755a1.959,1.959,0,0,0-1.644.813,3.575,3.575,0,0,0-.616,2.209V63H125.1V50h4.012v2.031h.051a4.926,4.926,0,0,1,4.2-2.349,3.743,3.743,0,0,1,3.771,2.425,4.809,4.809,0,0,1,4.367-2.425q4.24,0,4.24,5.23Zm14.854-5.357h-8.48q.2,2.831,3.567,2.831a6.965,6.965,0,0,0,3.771-1.016v2.895a9.9,9.9,0,0,1-4.685.965,6.051,6.051,0,0,1-6.627-6.614,6.957,6.957,0,0,1,1.879-5.129,6.26,6.26,0,0,1,4.621-1.892,5.681,5.681,0,0,1,4.4,1.688,6.5,6.5,0,0,1,1.555,4.583Zm-3.72-2.463q0-2.793-2.26-2.793a2.158,2.158,0,0,0-1.669.8,3.63,3.63,0,0,0-.857,1.993ZM175.535,63h-4V55.776q0-3.021-2.158-3.021a2.141,2.141,0,0,0-1.714.8,3.047,3.047,0,0,0-.673,2.031V63h-4.012V50h4.012v2.057h.051a4.6,4.6,0,0,1,4.177-2.374q4.316,0,4.316,5.357Zm11.032-.152a5.93,5.93,0,0,1-2.679.47q-4.24,0-4.24-4.405V52.958h-2.107V50h2.107V47.194l4-1.143V50h2.92v2.958h-2.92v5.256q0,2.031,1.612,2.031a2.718,2.718,0,0,0,1.308-.368Z" transform="translate(588.598 548.382) rotate(-47)" fill="#dee6f7"/>
    </g>
    <g id="sg" transform="translate(-96 7)">
      <g id="sdesign" transform="translate(774 386)" fill="#1565c0" style="mix-blend-mode: multiply;isolation: isolate">
        <path d="M 165 329.5 C 153.8385467529297 329.5 142.6842956542969 328.3755798339844 131.8470001220703 326.157958984375 C 121.2853775024414 323.9967041015625 110.8966217041016 320.7718811035156 100.9693298339844 316.572998046875 C 91.22216796875 312.4502563476562 81.82091522216797 307.3474731445312 73.02683258056641 301.4062805175781 C 64.31616973876953 295.5214538574219 56.12504196166992 288.7631530761719 48.68095779418945 281.319091796875 C 41.23687362670898 273.875 34.47854232788086 265.683837890625 28.59370803833008 256.9731750488281 C 22.65254211425781 248.1790771484375 17.54974937438965 238.7778778076172 13.42704200744629 229.0306701660156 C 9.228124618530273 219.1033782958984 6.003291606903076 208.7146301269531 3.842083215713501 198.1530456542969 C 1.624416708946228 187.3157501220703 0.5 176.1614532470703 0.5 165 C 0.5 153.8385467529297 1.624416708946228 142.6842956542969 3.842083215713501 131.8470001220703 C 6.003291606903076 121.2853775024414 9.228124618530273 110.8966217041016 13.42704200744629 100.9693298339844 C 17.54974937438965 91.22216796875 22.65254211425781 81.82091522216797 28.59370803833008 73.02683258056641 C 34.47854232788086 64.31616973876953 41.23687362670898 56.12504196166992 48.68095779418945 48.68095779418945 C 56.12504196166992 41.23687362670898 64.31616973876953 34.47854232788086 73.02683258056641 28.59370803833008 C 81.82091522216797 22.65254211425781 91.22216796875 17.54974937438965 100.9693298339844 13.42704200744629 C 110.8966217041016 9.228124618530273 121.2853775024414 6.003291606903076 131.8470001220703 3.842083215713501 C 142.6842956542969 1.624416708946228 153.8385467529297 0.5 165 0.5 C 176.1614532470703 0.5 187.3157501220703 1.624416708946228 198.1530456542969 3.842083215713501 C 208.7146301269531 6.003291606903076 219.1033782958984 9.228124618530273 229.0306701660156 13.42704200744629 C 238.7778778076172 17.54974937438965 248.1790771484375 22.65254211425781 256.9731750488281 28.59370803833008 C 265.683837890625 34.47854232788086 273.875 41.23687362670898 281.319091796875 48.68095779418945 C 288.7631530761719 56.12504196166992 295.5214538574219 64.31616973876953 301.4062805175781 73.02683258056641 C 307.3474731445312 81.82091522216797 312.4502563476562 91.22216796875 316.572998046875 100.9693298339844 C 320.7718811035156 110.8966217041016 323.9967041015625 121.2853775024414 326.157958984375 131.8470001220703 C 328.3755798339844 142.6842956542969 329.5 153.8385467529297 329.5 165 C 329.5 176.1614532470703 328.3755798339844 187.3157501220703 326.157958984375 198.1530456542969 C 323.9967041015625 208.7146301269531 320.7718811035156 219.1033782958984 316.572998046875 229.0306701660156 C 312.4502563476562 238.7778778076172 307.3474731445312 248.1790771484375 301.4062805175781 256.9731750488281 C 295.5214538574219 265.683837890625 288.7631530761719 273.875 281.319091796875 281.319091796875 C 273.875 288.7631530761719 265.683837890625 295.5214538574219 256.9731750488281 301.4062805175781 C 248.1790771484375 307.3474731445312 238.7778778076172 312.4502563476562 229.0306701660156 316.572998046875 C 219.1033782958984 320.7718811035156 208.7146301269531 323.9967041015625 198.1530456542969 326.157958984375 C 187.3157501220703 328.3755798339844 176.1614532470703 329.5 165 329.5 Z" stroke="none"/>
        <path d="M 165 1 C 153.8721618652344 1 142.7515869140625 2.121002197265625 131.9472045898438 4.3319091796875 C 121.4179534912109 6.48651123046875 111.0610046386719 9.701507568359375 101.1640777587891 13.88751220703125 C 91.44662475585938 17.9976806640625 82.07408142089844 23.08493041992188 73.3067626953125 29.008056640625 C 64.62240600585938 34.87503051757812 56.45608520507812 41.6129150390625 49.03448486328125 49.03448486328125 C 41.6129150390625 56.45608520507812 34.87503051757812 64.62240600585938 29.008056640625 73.3067626953125 C 23.08493041992188 82.07408142089844 17.9976806640625 91.44662475585938 13.88751220703125 101.1640777587891 C 9.701507568359375 111.0610046386719 6.48651123046875 121.4179534912109 4.3319091796875 131.9472045898438 C 2.121002197265625 142.7515869140625 1 153.8721618652344 1 165 C 1 176.1278381347656 2.121002197265625 187.2484130859375 4.3319091796875 198.0527954101562 C 6.48651123046875 208.58203125 9.701507568359375 218.9389953613281 13.88751220703125 228.8358764648438 C 17.9976806640625 238.5533447265625 23.08493041992188 247.9259185791016 29.008056640625 256.6932373046875 C 34.87503051757812 265.3775329589844 41.6129150390625 273.5439147949219 49.03448486328125 280.9655151367188 C 56.45608520507812 288.3870849609375 64.62240600585938 295.1249694824219 73.3067626953125 300.991943359375 C 82.07408142089844 306.9150390625 91.44662475585938 312.0023193359375 101.1640777587891 316.1124572753906 C 111.0610046386719 320.2984924316406 121.4179534912109 323.5134887695312 131.9472045898438 325.6680908203125 C 142.7515869140625 327.8789978027344 153.8721618652344 329 165 329 C 176.1278381347656 329 187.2484130859375 327.8789978027344 198.0527954101562 325.6680908203125 C 208.58203125 323.5134887695312 218.9389953613281 320.2984924316406 228.8358764648438 316.1124572753906 C 238.5533447265625 312.0023193359375 247.9259185791016 306.9150390625 256.6932373046875 300.991943359375 C 265.3775329589844 295.1249694824219 273.5439147949219 288.3870849609375 280.9655151367188 280.9655151367188 C 288.3870849609375 273.5439147949219 295.1249694824219 265.3775329589844 300.991943359375 256.6932373046875 C 306.9150390625 247.9259185791016 312.0023193359375 238.5533447265625 316.1124572753906 228.8358764648438 C 320.2984924316406 218.9389953613281 323.5134887695312 208.58203125 325.6680908203125 198.0527954101562 C 327.8789978027344 187.2484130859375 329 176.1278381347656 329 165 C 329 153.8721618652344 327.8789978027344 142.7515869140625 325.6680908203125 131.9472045898438 C 323.5134887695312 121.4179534912109 320.2984924316406 111.0610046386719 316.1124572753906 101.1640777587891 C 312.0023193359375 91.44662475585938 306.9150390625 82.07408142089844 300.991943359375 73.3067626953125 C 295.1249694824219 64.62240600585938 288.3870849609375 56.45608520507812 280.9655151367188 49.03448486328125 C 273.5439147949219 41.6129150390625 265.3775329589844 34.87503051757812 256.6932373046875 29.008056640625 C 247.9259185791016 23.08493041992188 238.5533447265625 17.9976806640625 228.8358764648438 13.88751220703125 C 218.9389953613281 9.701507568359375 208.58203125 6.48651123046875 198.0527954101562 4.3319091796875 C 187.2484130859375 2.121002197265625 176.1278381347656 1 165 1 M 165 0 C 256.126953125 0 330 73.87298583984375 330 165 C 330 256.126953125 256.126953125 330 165 330 C 73.87298583984375 330 0 256.126953125 0 165 C 0 73.87298583984375 73.87298583984375 0 165 0 Z" stroke="none" fill="#707070"/>
      </g>
      <path id="stext" d="M30.631,27.3V23.239a7.806,7.806,0,0,0,2.4,1.39,7.713,7.713,0,0,0,2.615.463A5.8,5.8,0,0,0,37,24.953a3.167,3.167,0,0,0,.965-.387,1.689,1.689,0,0,0,.578-.584,1.457,1.457,0,0,0,.19-.73,1.578,1.578,0,0,0-.3-.952,3.279,3.279,0,0,0-.832-.774,8.689,8.689,0,0,0-1.25-.686q-.724-.33-1.562-.673A7.97,7.97,0,0,1,31.6,18a4.74,4.74,0,0,1-1.047-3.1,4.934,4.934,0,0,1,.571-2.444,4.852,4.852,0,0,1,1.555-1.682A6.973,6.973,0,0,1,34.96,9.8,11.709,11.709,0,0,1,37.7,9.49a16.493,16.493,0,0,1,2.52.171,9.91,9.91,0,0,1,2.025.527v3.8a6.123,6.123,0,0,0-1-.559,7.9,7.9,0,0,0-1.111-.4A8.473,8.473,0,0,0,39,12.791a8.042,8.042,0,0,0-1.073-.076,5.594,5.594,0,0,0-1.27.133,3.256,3.256,0,0,0-.965.375,1.863,1.863,0,0,0-.609.578,1.369,1.369,0,0,0-.216.755,1.443,1.443,0,0,0,.241.819,2.767,2.767,0,0,0,.686.686,7.275,7.275,0,0,0,1.079.635q.635.311,1.435.641a15.986,15.986,0,0,1,1.961.971,6.973,6.973,0,0,1,1.492,1.162,4.525,4.525,0,0,1,.952,1.479,5.226,5.226,0,0,1,.33,1.936,5.186,5.186,0,0,1-.578,2.558A4.69,4.69,0,0,1,40.9,27.118a6.8,6.8,0,0,1-2.3.92,13.317,13.317,0,0,1-2.774.279,15.424,15.424,0,0,1-2.85-.254A8.6,8.6,0,0,1,30.631,27.3Zm21.214,1.016a6.988,6.988,0,0,1-5.11-1.822,6.6,6.6,0,0,1-1.86-4.945A6.6,6.6,0,0,1,46.8,16.5a7.291,7.291,0,0,1,5.218-1.822A6.9,6.9,0,0,1,57.1,16.5a6.476,6.476,0,0,1,1.841,4.818,6.874,6.874,0,0,1-1.9,5.116A7.066,7.066,0,0,1,51.845,28.317Zm.1-10.562a2.676,2.676,0,0,0-2.209.978A4.311,4.311,0,0,0,48.95,21.5q0,3.745,3.021,3.745,2.882,0,2.882-3.847Q54.854,17.755,51.946,17.755ZM71.4,27.53a7.932,7.932,0,0,1-3.923.787,6.634,6.634,0,0,1-4.85-1.815,6.27,6.27,0,0,1-1.854-4.685,6.907,6.907,0,0,1,1.987-5.224,7.343,7.343,0,0,1,5.313-1.911,6.817,6.817,0,0,1,3.326.609v3.4a4.573,4.573,0,0,0-2.806-.939,3.7,3.7,0,0,0-2.736,1.009,3.766,3.766,0,0,0-1.009,2.787,3.7,3.7,0,0,0,.965,2.71,3.546,3.546,0,0,0,2.653.984,5.3,5.3,0,0,0,2.933-.939Zm4.659-14.587a2.343,2.343,0,0,1-1.663-.6,1.943,1.943,0,0,1-.647-1.479,1.874,1.874,0,0,1,.647-1.473,2.716,2.716,0,0,1,3.333,0,1.882,1.882,0,0,1,.641,1.473,1.935,1.935,0,0,1-.641,1.5A2.383,2.383,0,0,1,76.055,12.943ZM78.035,28H74.023V15h4.012Zm14.193,0h-3.8V26.134h-.051a4.237,4.237,0,0,1-3.872,2.184,4.05,4.05,0,0,1-2.977-1.073,3.844,3.844,0,0,1-1.085-2.863q0-3.783,4.481-4.367l3.529-.47q0-2.133-2.311-2.133A7.887,7.887,0,0,0,81.729,18.8V15.774a9.939,9.939,0,0,1,2.292-.762,12.046,12.046,0,0,1,2.647-.33q5.561,0,5.561,5.548Zm-3.771-5.281v-.876l-2.361.3q-1.955.254-1.955,1.765a1.458,1.458,0,0,0,.476,1.124,1.829,1.829,0,0,0,1.289.438,2.375,2.375,0,0,0,1.841-.781A2.82,2.82,0,0,0,88.458,22.719ZM99.414,28H95.4V8.754h4.012Zm15.044-6.271V28h-4.1V9.795h6.424q6.881,0,6.881,5.8a5.567,5.567,0,0,1-1.974,4.437,7.821,7.821,0,0,1-5.275,1.695Zm0-8.785v5.675h1.612q3.275,0,3.275-2.869,0-2.806-3.275-2.806Zm16.9,15.374a6.988,6.988,0,0,1-5.11-1.822,6.6,6.6,0,0,1-1.86-4.945,6.6,6.6,0,0,1,1.93-5.046,7.291,7.291,0,0,1,5.218-1.822,6.9,6.9,0,0,1,5.078,1.822,6.476,6.476,0,0,1,1.841,4.818,6.874,6.874,0,0,1-1.9,5.116A7.066,7.066,0,0,1,131.355,28.317Zm.1-10.562a2.676,2.676,0,0,0-2.209.978,4.311,4.311,0,0,0-.787,2.768q0,3.745,3.021,3.745,2.882,0,2.882-3.847Q134.364,17.755,131.457,17.755ZM145.066,28h-4.012V8.754h4.012Zm5.408-15.057a2.343,2.343,0,0,1-1.663-.6,1.943,1.943,0,0,1-.647-1.479,1.874,1.874,0,0,1,.647-1.473,2.716,2.716,0,0,1,3.333,0,1.882,1.882,0,0,1,.641,1.473,1.935,1.935,0,0,1-.641,1.5A2.383,2.383,0,0,1,150.475,12.943ZM152.455,28h-4.012V15h4.012Zm13.229-.47a7.932,7.932,0,0,1-3.923.787,6.634,6.634,0,0,1-4.85-1.815,6.27,6.27,0,0,1-1.854-4.685,6.907,6.907,0,0,1,1.987-5.224,7.343,7.343,0,0,1,5.313-1.911,6.817,6.817,0,0,1,3.326.609v3.4a4.573,4.573,0,0,0-2.806-.939,3.7,3.7,0,0,0-2.736,1.009,3.766,3.766,0,0,0-1.009,2.787,3.7,3.7,0,0,0,.965,2.71,3.546,3.546,0,0,0,2.653.984,5.3,5.3,0,0,0,2.933-.939ZM180.689,15l-5.281,14.041q-1.9,5.065-5.738,5.065a7.352,7.352,0,0,1-2.4-.33v-3.2a3.374,3.374,0,0,0,1.739.47,2.173,2.173,0,0,0,2.158-1.46l.686-1.612L166.572,15h4.443l2.425,7.909a10.278,10.278,0,0,1,.355,1.739h.051a12.127,12.127,0,0,1,.419-1.714L176.716,15ZM73.268,63H68.8L67.5,58.95H61.03L59.748,63H55.3l6.627-18.205h4.862Zm-6.7-7.2L64.61,49.683a7.974,7.974,0,0,1-.3-1.638h-.1a6.944,6.944,0,0,1-.317,1.587l-1.98,6.17ZM87.7,63h-4V55.776q0-3.021-2.158-3.021a2.141,2.141,0,0,0-1.714.8,3.047,3.047,0,0,0-.673,2.031V63H75.147V50h4.012v2.057h.051a4.6,4.6,0,0,1,4.177-2.374q4.316,0,4.316,5.357Zm13.99,0H97.9V61.134h-.051a4.237,4.237,0,0,1-3.872,2.184A4.05,4.05,0,0,1,91,62.245a3.844,3.844,0,0,1-1.085-2.863q0-3.783,4.481-4.367l3.529-.47q0-2.133-2.311-2.133A7.887,7.887,0,0,0,91.194,53.8V50.774a9.939,9.939,0,0,1,2.292-.762,12.046,12.046,0,0,1,2.647-.33q5.561,0,5.561,5.548Zm-3.771-5.281v-.876l-2.361.3q-1.955.254-1.955,1.765a1.458,1.458,0,0,0,.476,1.124,1.829,1.829,0,0,0,1.289.438,2.375,2.375,0,0,0,1.841-.781A2.82,2.82,0,0,0,97.922,57.719ZM108.878,63h-4.012V43.754h4.012Zm15.755-13-5.281,14.041q-1.9,5.065-5.738,5.065a7.352,7.352,0,0,1-2.4-.33v-3.2a3.374,3.374,0,0,0,1.739.47,2.173,2.173,0,0,0,2.158-1.46l.686-1.612L110.516,50h4.443l2.425,7.909a10.278,10.278,0,0,1,.355,1.739h.051a12.127,12.127,0,0,1,.419-1.714L120.66,50Zm.762,12.657v-3.25a8.541,8.541,0,0,0,1.974.889,6.546,6.546,0,0,0,1.86.292,3.989,3.989,0,0,0,1.682-.292.943.943,0,0,0,.616-.889.822.822,0,0,0-.279-.635,2.6,2.6,0,0,0-.717-.444,8.14,8.14,0,0,0-.958-.343q-.521-.152-1-.343a9.609,9.609,0,0,1-1.365-.628,3.945,3.945,0,0,1-.99-.781,3.069,3.069,0,0,1-.609-1.028,4.1,4.1,0,0,1-.209-1.384,3.562,3.562,0,0,1,.476-1.879,3.889,3.889,0,0,1,1.27-1.289,5.8,5.8,0,0,1,1.815-.736,9.466,9.466,0,0,1,2.126-.235,11.8,11.8,0,0,1,1.752.133,13.076,13.076,0,0,1,1.752.387v3.1a6.33,6.33,0,0,0-1.631-.667,6.881,6.881,0,0,0-1.708-.222,3.783,3.783,0,0,0-.743.07,2.446,2.446,0,0,0-.616.2,1.131,1.131,0,0,0-.419.343.789.789,0,0,0-.152.476.879.879,0,0,0,.229.609,1.985,1.985,0,0,0,.6.438,5.89,5.89,0,0,0,.819.33q.451.146.9.3a11.637,11.637,0,0,1,1.447.609,4.627,4.627,0,0,1,1.111.774,3.041,3.041,0,0,1,.711,1.041,4.165,4.165,0,0,1-.254,3.4,4.015,4.015,0,0,1-1.333,1.333,6.045,6.045,0,0,1-1.917.749,10.627,10.627,0,0,1-2.253.235A11.617,11.617,0,0,1,125.4,62.657Zm14.32-14.714a2.343,2.343,0,0,1-1.663-.6,1.943,1.943,0,0,1-.647-1.479,1.874,1.874,0,0,1,.647-1.473,2.716,2.716,0,0,1,3.333,0,1.882,1.882,0,0,1,.641,1.473,1.935,1.935,0,0,1-.641,1.5A2.383,2.383,0,0,1,139.715,47.943ZM141.7,63h-4.012V50H141.7Zm2.526-.343v-3.25a8.541,8.541,0,0,0,1.974.889,6.546,6.546,0,0,0,1.86.292,3.989,3.989,0,0,0,1.682-.292.943.943,0,0,0,.616-.889.822.822,0,0,0-.279-.635,2.6,2.6,0,0,0-.717-.444,8.14,8.14,0,0,0-.958-.343q-.521-.152-1-.343a9.609,9.609,0,0,1-1.365-.628,3.945,3.945,0,0,1-.99-.781,3.069,3.069,0,0,1-.609-1.028,4.1,4.1,0,0,1-.209-1.384,3.562,3.562,0,0,1,.476-1.879,3.889,3.889,0,0,1,1.27-1.289,5.8,5.8,0,0,1,1.815-.736,9.466,9.466,0,0,1,2.126-.235,11.8,11.8,0,0,1,1.752.133,13.076,13.076,0,0,1,1.752.387v3.1a6.33,6.33,0,0,0-1.631-.667,6.881,6.881,0,0,0-1.708-.222,3.783,3.783,0,0,0-.743.07,2.446,2.446,0,0,0-.616.2,1.131,1.131,0,0,0-.419.343.789.789,0,0,0-.152.476.879.879,0,0,0,.229.609,1.985,1.985,0,0,0,.6.438,5.89,5.89,0,0,0,.819.33q.451.146.9.3a11.637,11.637,0,0,1,1.447.609,4.627,4.627,0,0,1,1.111.774,3.041,3.041,0,0,1,.711,1.041A4.165,4.165,0,0,1,153.7,61a4.015,4.015,0,0,1-1.333,1.333,6.045,6.045,0,0,1-1.917.749,10.627,10.627,0,0,1-2.253.235A11.617,11.617,0,0,1,144.222,62.657Z" transform="translate(961.922 407.431) rotate(59)" fill="#dee6f7"/>
    </g>
    <g id="eg" transform="translate(-96 7)">
      <g id="edesign" transform="translate(656 531)" fill="#f57c00" style="mix-blend-mode: multiply;isolation: isolate">
        <path d="M 165 329.5 C 153.8385467529297 329.5 142.6842956542969 328.3755798339844 131.8470001220703 326.157958984375 C 121.2853775024414 323.9967041015625 110.8966217041016 320.7718811035156 100.9693298339844 316.572998046875 C 91.22216796875 312.4502563476562 81.82091522216797 307.3474731445312 73.02683258056641 301.4062805175781 C 64.31616973876953 295.5214538574219 56.12504196166992 288.7631530761719 48.68095779418945 281.319091796875 C 41.23687362670898 273.875 34.47854232788086 265.683837890625 28.59370803833008 256.9731750488281 C 22.65254211425781 248.1790771484375 17.54974937438965 238.7778778076172 13.42704200744629 229.0306701660156 C 9.228124618530273 219.1033782958984 6.003291606903076 208.7146301269531 3.842083215713501 198.1530456542969 C 1.624416708946228 187.3157501220703 0.5 176.1614532470703 0.5 165 C 0.5 153.8385467529297 1.624416708946228 142.6842956542969 3.842083215713501 131.8470001220703 C 6.003291606903076 121.2853775024414 9.228124618530273 110.8966217041016 13.42704200744629 100.9693298339844 C 17.54974937438965 91.22216796875 22.65254211425781 81.82091522216797 28.59370803833008 73.02683258056641 C 34.47854232788086 64.31616973876953 41.23687362670898 56.12504196166992 48.68095779418945 48.68095779418945 C 56.12504196166992 41.23687362670898 64.31616973876953 34.47854232788086 73.02683258056641 28.59370803833008 C 81.82091522216797 22.65254211425781 91.22216796875 17.54974937438965 100.9693298339844 13.42704200744629 C 110.8966217041016 9.228124618530273 121.2853775024414 6.003291606903076 131.8470001220703 3.842083215713501 C 142.6842956542969 1.624416708946228 153.8385467529297 0.5 165 0.5 C 176.1614532470703 0.5 187.3157501220703 1.624416708946228 198.1530456542969 3.842083215713501 C 208.7146301269531 6.003291606903076 219.1033782958984 9.228124618530273 229.0306701660156 13.42704200744629 C 238.7778778076172 17.54974937438965 248.1790771484375 22.65254211425781 256.9731750488281 28.59370803833008 C 265.683837890625 34.47854232788086 273.875 41.23687362670898 281.319091796875 48.68095779418945 C 288.7631530761719 56.12504196166992 295.5214538574219 64.31616973876953 301.4062805175781 73.02683258056641 C 307.3474731445312 81.82091522216797 312.4502563476562 91.22216796875 316.572998046875 100.9693298339844 C 320.7718811035156 110.8966217041016 323.9967041015625 121.2853775024414 326.157958984375 131.8470001220703 C 328.3755798339844 142.6842956542969 329.5 153.8385467529297 329.5 165 C 329.5 176.1614532470703 328.3755798339844 187.3157501220703 326.157958984375 198.1530456542969 C 323.9967041015625 208.7146301269531 320.7718811035156 219.1033782958984 316.572998046875 229.0306701660156 C 312.4502563476562 238.7778778076172 307.3474731445312 248.1790771484375 301.4062805175781 256.9731750488281 C 295.5214538574219 265.683837890625 288.7631530761719 273.875 281.319091796875 281.319091796875 C 273.875 288.7631530761719 265.683837890625 295.5214538574219 256.9731750488281 301.4062805175781 C 248.1790771484375 307.3474731445312 238.7778778076172 312.4502563476562 229.0306701660156 316.572998046875 C 219.1033782958984 320.7718811035156 208.7146301269531 323.9967041015625 198.1530456542969 326.157958984375 C 187.3157501220703 328.3755798339844 176.1614532470703 329.5 165 329.5 Z" stroke="none"/>
        <path d="M 165 1 C 153.8721618652344 1 142.7515869140625 2.121002197265625 131.9472045898438 4.3319091796875 C 121.4179534912109 6.48651123046875 111.0610046386719 9.701507568359375 101.1640777587891 13.88751220703125 C 91.44662475585938 17.9976806640625 82.07408142089844 23.08493041992188 73.3067626953125 29.008056640625 C 64.62240600585938 34.87503051757812 56.45608520507812 41.6129150390625 49.03448486328125 49.03448486328125 C 41.6129150390625 56.45608520507812 34.87503051757812 64.62240600585938 29.008056640625 73.3067626953125 C 23.08493041992188 82.07408142089844 17.9976806640625 91.44662475585938 13.88751220703125 101.1640777587891 C 9.701507568359375 111.0610046386719 6.48651123046875 121.4179534912109 4.3319091796875 131.9472045898438 C 2.121002197265625 142.7515869140625 1 153.8721618652344 1 165 C 1 176.1278381347656 2.121002197265625 187.2484130859375 4.3319091796875 198.0527954101562 C 6.48651123046875 208.58203125 9.701507568359375 218.9389953613281 13.88751220703125 228.8358764648438 C 17.9976806640625 238.5533447265625 23.08493041992188 247.9259185791016 29.008056640625 256.6932373046875 C 34.87503051757812 265.3775329589844 41.6129150390625 273.5439147949219 49.03448486328125 280.9655151367188 C 56.45608520507812 288.3870849609375 64.62240600585938 295.1249694824219 73.3067626953125 300.991943359375 C 82.07408142089844 306.9150390625 91.44662475585938 312.0023193359375 101.1640777587891 316.1124572753906 C 111.0610046386719 320.2984924316406 121.4179534912109 323.5134887695312 131.9472045898438 325.6680908203125 C 142.7515869140625 327.8789978027344 153.8721618652344 329 165 329 C 176.1278381347656 329 187.2484130859375 327.8789978027344 198.0527954101562 325.6680908203125 C 208.58203125 323.5134887695312 218.9389953613281 320.2984924316406 228.8358764648438 316.1124572753906 C 238.5533447265625 312.0023193359375 247.9259185791016 306.9150390625 256.6932373046875 300.991943359375 C 265.3775329589844 295.1249694824219 273.5439147949219 288.3870849609375 280.9655151367188 280.9655151367188 C 288.3870849609375 273.5439147949219 295.1249694824219 265.3775329589844 300.991943359375 256.6932373046875 C 306.9150390625 247.9259185791016 312.0023193359375 238.5533447265625 316.1124572753906 228.8358764648438 C 320.2984924316406 218.9389953613281 323.5134887695312 208.58203125 325.6680908203125 198.0527954101562 C 327.8789978027344 187.2484130859375 329 176.1278381347656 329 165 C 329 153.8721618652344 327.8789978027344 142.7515869140625 325.6680908203125 131.9472045898438 C 323.5134887695312 121.4179534912109 320.2984924316406 111.0610046386719 316.1124572753906 101.1640777587891 C 312.0023193359375 91.44662475585938 306.9150390625 82.07408142089844 300.991943359375 73.3067626953125 C 295.1249694824219 64.62240600585938 288.3870849609375 56.45608520507812 280.9655151367188 49.03448486328125 C 273.5439147949219 41.6129150390625 265.3775329589844 34.87503051757812 256.6932373046875 29.008056640625 C 247.9259185791016 23.08493041992188 238.5533447265625 17.9976806640625 228.8358764648438 13.88751220703125 C 218.9389953613281 9.701507568359375 208.58203125 6.48651123046875 198.0527954101562 4.3319091796875 C 187.2484130859375 2.121002197265625 176.1278381347656 1 165 1 M 165 0 C 256.126953125 0 330 73.87298583984375 330 165 C 330 256.126953125 256.126953125 330 165 330 C 73.87298583984375 330 0 256.126953125 0 165 C 0 73.87298583984375 73.87298583984375 0 165 0 Z" stroke="none" fill="#707070"/>
      </g>
      <path id="etext" d="M64.788,28H53.87V9.795h10.5v3.339h-6.4v4.05h5.954V20.51H57.97v4.164h6.817Zm15.247,5.979H76.023V26.21h-.051a4.456,4.456,0,0,1-4,2.107,4.978,4.978,0,0,1-3.942-1.708,7.05,7.05,0,0,1-1.492-4.792,7.791,7.791,0,0,1,1.638-5.192,5.315,5.315,0,0,1,4.266-1.942,3.869,3.869,0,0,1,3.529,1.828h.051V15h4.012ZM76.1,21.792V20.751a3.173,3.173,0,0,0-.736-2.133,2.373,2.373,0,0,0-1.892-.863A2.449,2.449,0,0,0,71.376,18.8a4.851,4.851,0,0,0-.762,2.9,4.1,4.1,0,0,0,.743,2.6,2.352,2.352,0,0,0,1.936.939,2.487,2.487,0,0,0,2.038-.952A3.862,3.862,0,0,0,76.1,21.792ZM95.764,28h-4V26.02H91.7a4.537,4.537,0,0,1-3.974,2.3q-4.52,0-4.52-5.472V15h4v7.49q0,2.755,2.184,2.755a2.16,2.16,0,0,0,1.727-.755,3.046,3.046,0,0,0,.647-2.05V15h4Zm5.408-15.057a2.343,2.343,0,0,1-1.663-.6,1.943,1.943,0,0,1-.647-1.479,1.874,1.874,0,0,1,.647-1.473,2.716,2.716,0,0,1,3.333,0,1.882,1.882,0,0,1,.641,1.473,1.935,1.935,0,0,1-.641,1.5A2.383,2.383,0,0,1,101.172,12.943ZM103.153,28H99.141V15h4.012Zm11.235-.152a5.93,5.93,0,0,1-2.679.47q-4.24,0-4.24-4.405V17.958h-2.107V15h2.107V12.194l4-1.143V15h2.92v2.958h-2.92v5.256q0,2.031,1.612,2.031a2.718,2.718,0,0,0,1.308-.368ZM129.026,15l-5.281,14.041q-1.9,5.065-5.738,5.065a7.352,7.352,0,0,1-2.4-.33v-3.2a3.374,3.374,0,0,0,1.739.47,2.173,2.173,0,0,0,2.158-1.46l.686-1.612L114.909,15h4.443l2.425,7.909a10.278,10.278,0,0,1,.355,1.739h.051a12.127,12.127,0,0,1,.419-1.714L125.052,15ZM154.9,28.292a4.491,4.491,0,0,1-1.276-.178,5.447,5.447,0,0,1-1.143-.482,6.449,6.449,0,0,1-1.022-.717,10.578,10.578,0,0,1-.914-.882,10.741,10.741,0,0,1-1.13.787,9.234,9.234,0,0,1-1.492.73,11.588,11.588,0,0,1-1.834.533,10.484,10.484,0,0,1-2.146.209,10.117,10.117,0,0,1-2.749-.355,6.334,6.334,0,0,1-2.177-1.06,4.933,4.933,0,0,1-1.428-1.746,5.382,5.382,0,0,1-.514-2.412,4.565,4.565,0,0,1,.387-1.923,5.175,5.175,0,0,1,1.009-1.479,6.607,6.607,0,0,1,1.409-1.092,10.588,10.588,0,0,1,1.6-.762,8.4,8.4,0,0,1-.793-.7,5.731,5.731,0,0,1-.717-.876,4.629,4.629,0,0,1-.514-1.035,3.527,3.527,0,0,1-.2-1.181,3.66,3.66,0,0,1,1.542-3.085,5.321,5.321,0,0,1,1.746-.812,8.412,8.412,0,0,1,2.234-.279,7.407,7.407,0,0,1,2.139.292,5.337,5.337,0,0,1,1.669.813,3.663,3.663,0,0,1,1.079,1.25,3.419,3.419,0,0,1,.381,1.606,3.747,3.747,0,0,1-.844,2.444,6.006,6.006,0,0,1-2.38,1.682,9.7,9.7,0,0,1,1.168.635,9.594,9.594,0,0,1,1.092.813,10.421,10.421,0,0,1,1.041,1.035,12.182,12.182,0,0,1,1,1.327A8.379,8.379,0,0,0,152.62,18.6a10.5,10.5,0,0,0,.451-3.079,7.266,7.266,0,0,0-.057-.927,4.367,4.367,0,0,0-.184-.825h3.415a4.906,4.906,0,0,1,.2.787,5.561,5.561,0,0,1,.063.9,11,11,0,0,1-.26,2.4,12.006,12.006,0,0,1-.73,2.234,11.82,11.82,0,0,1-1.136,2.019,14.48,14.48,0,0,1-1.466,1.777,5.114,5.114,0,0,0,1.282,1,2.674,2.674,0,0,0,1.244.349,6.044,6.044,0,0,0,1.244-.133,4.39,4.39,0,0,0,1.1-.375v3.021a7.706,7.706,0,0,1-1.377.413A7.906,7.906,0,0,1,154.9,28.292Zm-10.753-3.034a6.516,6.516,0,0,0,1.409-.146,7.488,7.488,0,0,0,1.244-.387,7.074,7.074,0,0,0,1.085-.559,9.338,9.338,0,0,0,.92-.66,13.075,13.075,0,0,0-1.282-1.72,11.008,11.008,0,0,0-1.257-1.206,8.809,8.809,0,0,0-1.238-.844q-.616-.343-1.238-.622a9.172,9.172,0,0,0-1,.565,4.214,4.214,0,0,0-.844.724,3.361,3.361,0,0,0-.59.939,3.1,3.1,0,0,0-.222,1.212,2.736,2.736,0,0,0,.216,1.1,2.415,2.415,0,0,0,.616.851,2.86,2.86,0,0,0,.952.552A3.629,3.629,0,0,0,144.146,25.258Zm2.349-11.527a1.511,1.511,0,0,0-.14-.66,1.4,1.4,0,0,0-.381-.489,1.814,1.814,0,0,0-.546-.3,1.925,1.925,0,0,0-.647-.108,2.233,2.233,0,0,0-.768.127,2.034,2.034,0,0,0-.609.343,1.472,1.472,0,0,0-.4.514,1.494,1.494,0,0,0-.14.641,2.142,2.142,0,0,0,.444,1.308,3.463,3.463,0,0,0,1.1.965,5.867,5.867,0,0,0,.793-.355,2.947,2.947,0,0,0,.66-.482,2.19,2.19,0,0,0,.457-.647A2,2,0,0,0,146.495,13.73ZM56.174,63h-4.1V44.795h4.1Zm16.3,0h-4V55.776q0-3.021-2.158-3.021a2.141,2.141,0,0,0-1.714.8,3.047,3.047,0,0,0-.673,2.031V63H59.919V50h4.012v2.057h.051a4.6,4.6,0,0,1,4.177-2.374q4.316,0,4.316,5.357ZM85.5,62.53a7.932,7.932,0,0,1-3.923.787,6.634,6.634,0,0,1-4.85-1.815,6.27,6.27,0,0,1-1.854-4.685,6.907,6.907,0,0,1,1.987-5.224,7.343,7.343,0,0,1,5.313-1.911,6.817,6.817,0,0,1,3.326.609v3.4a4.573,4.573,0,0,0-2.806-.939,3.7,3.7,0,0,0-2.736,1.009,3.766,3.766,0,0,0-1.009,2.787,3.7,3.7,0,0,0,.965,2.71,3.546,3.546,0,0,0,2.653.984,5.3,5.3,0,0,0,2.933-.939Zm6.64.47H88.128V43.754H92.14Zm15.729,0h-4V61.02h-.063a4.537,4.537,0,0,1-3.974,2.3q-4.52,0-4.52-5.472V50h4v7.49q0,2.755,2.184,2.755a2.16,2.16,0,0,0,1.727-.755,3.046,3.046,0,0,0,.647-2.05V50h4Zm2.526-.343v-3.25a8.541,8.541,0,0,0,1.974.889,6.546,6.546,0,0,0,1.86.292,3.989,3.989,0,0,0,1.682-.292.943.943,0,0,0,.616-.889.822.822,0,0,0-.279-.635,2.6,2.6,0,0,0-.717-.444,8.14,8.14,0,0,0-.958-.343q-.521-.152-1-.343a9.609,9.609,0,0,1-1.365-.628,3.945,3.945,0,0,1-.99-.781,3.069,3.069,0,0,1-.609-1.028,4.1,4.1,0,0,1-.209-1.384,3.562,3.562,0,0,1,.476-1.879,3.889,3.889,0,0,1,1.27-1.289,5.8,5.8,0,0,1,1.815-.736,9.466,9.466,0,0,1,2.126-.235,11.8,11.8,0,0,1,1.752.133,13.076,13.076,0,0,1,1.752.387v3.1a6.331,6.331,0,0,0-1.631-.667,6.881,6.881,0,0,0-1.708-.222,3.783,3.783,0,0,0-.743.07,2.446,2.446,0,0,0-.616.2,1.131,1.131,0,0,0-.419.343.789.789,0,0,0-.152.476.879.879,0,0,0,.229.609,1.985,1.985,0,0,0,.6.438,5.891,5.891,0,0,0,.819.33q.451.146.9.3a11.637,11.637,0,0,1,1.447.609,4.628,4.628,0,0,1,1.111.774,3.041,3.041,0,0,1,.711,1.041,4.165,4.165,0,0,1-.254,3.4,4.015,4.015,0,0,1-1.333,1.333,6.045,6.045,0,0,1-1.917.749,10.627,10.627,0,0,1-2.253.235A11.617,11.617,0,0,1,110.4,62.657Zm14.32-14.714a2.343,2.343,0,0,1-1.663-.6,1.943,1.943,0,0,1-.647-1.479,1.874,1.874,0,0,1,.647-1.473,2.716,2.716,0,0,1,3.333,0,1.882,1.882,0,0,1,.641,1.473,1.935,1.935,0,0,1-.641,1.5A2.383,2.383,0,0,1,124.716,47.943ZM126.7,63h-4.012V50H126.7Zm9.572.317a6.988,6.988,0,0,1-5.11-1.822,6.6,6.6,0,0,1-1.86-4.945,6.6,6.6,0,0,1,1.93-5.046,7.291,7.291,0,0,1,5.218-1.822,6.9,6.9,0,0,1,5.078,1.822,6.476,6.476,0,0,1,1.841,4.818,6.874,6.874,0,0,1-1.9,5.116A7.066,7.066,0,0,1,136.269,63.317Zm.1-10.562a2.676,2.676,0,0,0-2.209.978,4.311,4.311,0,0,0-.787,2.768q0,3.745,3.021,3.745,2.882,0,2.882-3.847Q139.277,52.755,136.37,52.755ZM158.523,63h-4V55.776q0-3.021-2.158-3.021a2.141,2.141,0,0,0-1.714.8,3.047,3.047,0,0,0-.673,2.031V63h-4.012V50h4.012v2.057h.051a4.6,4.6,0,0,1,4.177-2.374q4.316,0,4.316,5.357Z" transform="translate(716 723.207)" fill="#dee6f7"/>
    </g>
  </g>
</svg>
