<svg xmlns="http://www.w3.org/2000/svg" width="32" height="32" viewBox="0 0 32 32"><g transform="translate(-1)"><path d="M8,0H24a8,8,0,0,1,8,8V24a8,8,0,0,1-8,8H8a8,8,0,0,1-8-8V8A8,8,0,0,1,8,0Z" transform="translate(1)"/><g transform="translate(2.995 6)"><path d="M7.277,10.752l-3.1,3.1H2.235l3-3,1.02-1.02-.5-.5-1.02,1.02-.98.98a.3.3,0,0,1-.4,0l-.34-.34-.5-.5-.18-.18a1.111,1.111,0,0,1,0-1.581L5.016,6.05H6.937l-3.7,3.722.5.5.74-.74,1-1a.785.785,0,0,1,1.1,0l.68.68a1.111,1.111,0,0,1,0,1.581Z" transform="translate(0 -0.05)" fill="#fff"/><g transform="translate(8.738 7)"><path d="M11.152,8.383c.16-1.581-2.441-2.181-3.3-1.02a1.6,1.6,0,0,0-.06,1.781c.62.94,2.3.58,2.481,1.321.2,1.1-1.821,1.04-1.841.08h-1c.06,1.6,1.981,2.081,3.1,1.341a1.591,1.591,0,0,0,.58-2.141,2.646,2.646,0,0,0-1.5-.8c-.6-.1-1.2-.22-1.04-.88.26-.6,1.641-.52,1.6.3h.98Z" transform="translate(-3.308 -6.758)" fill="#fff"/><path d="M9.092,8.383C9.252,6.8,6.651,6.2,5.79,7.363a1.6,1.6,0,0,0-.06,1.781c.62.94,2.3.58,2.481,1.321.2,1.1-1.821,1.04-1.841.08h-1c.06,1.6,1.981,2.081,3.1,1.341a1.591,1.591,0,0,0,.58-2.141,2.646,2.646,0,0,0-1.5-.8c-.6-.1-1.2-.22-1.04-.88.26-.6,1.641-.52,1.6.3h.98Z" transform="translate(-5.37 -6.758)" fill="#fff"/><path d="M12.341,10.119a1.714,1.714,0,0,0,.8-2.681c-.7-1.04-2.581-.54-3.561-.64V12.24h1V10.279h.76c.34.66.7,1.321,1.04,1.981h1.261c-.42-.7-.86-1.4-1.281-2.121Zm-.16-.98c-.3.34-1.221.16-1.6.2V7.678c.36.04,1.241-.12,1.541.16a.921.921,0,0,1,.08,1.3Z" transform="translate(-1.156 -6.752)" fill="#fff"/><path d="M15.329,8.658c-.64-2.181-3.762-.12-2.161,2.141.64.84,2.541.62,2.261-.66h-1.14v-.8H16.35v1.8a2.558,2.558,0,0,1-4.5-.5,3.158,3.158,0,0,1,.64-3.281c1.18-1.02,3.461-.76,3.822,1.02-.32.1-.66.18-.98.28Z" transform="translate(0.917 -6.753)" fill="#fff"/></g></g></g></svg>