<?xml version="1.0" encoding="UTF-8"?><svg id="Layer_1" xmlns="http://www.w3.org/2000/svg" width="24" height="24" viewBox="0 0 24 24"><g id="logo"><path id="symbol" d="m6.39,12.67l-2.59,2.59h-1.61l2.5-2.5.85-.85-.42-.42-.85.85-.81.81c-.09.09-.24.09-.33,0l-.29-.29-.42-.42-.15-.15c-.36-.36-.36-.95,0-1.31l2.24-2.24h1.61s-3.09,3.1-3.09,3.1l.42.42.62-.62.84-.84c.25-.25.66-.26.92-.01l.57.57c.36.36.36.95,0,1.31Z" fill="#f0f"/><g id="text"><path d="m14.15,11.29c.13-1.31-2.03-1.82-2.76-.85-.29.39-.34,1.04-.05,1.49.51.79,1.92.49,2.07,1.09.17.92-1.52.87-1.54.06-.28,0-.56,0-.83.01.05,1.34,1.64,1.74,2.59,1.12.56-.29.88-1.19.49-1.78-.29-.44-1.01-.61-1.24-.66-.5-.08-1-.19-.86-.73.21-.51,1.36-.44,1.33.25h.82Z" fill="#f0f"/><path d="m10.71,11.29c.13-1.31-2.03-1.82-2.76-.85-.29.39-.34,1.04-.05,1.49.51.79,1.92.49,2.07,1.09.17.92-1.52.87-1.54.06-.28,0-.56,0-.83.01.05,1.34,1.64,1.74,2.59,1.12.56-.29.88-1.19.49-1.78-.29-.44-1.01-.61-1.24-.66-.5-.08-1-.19-.86-.73.21-.51,1.36-.44,1.33.25h.82Z" fill="#f0f"/><path d="m16.93,12.74c.86-.15,1.28-1.45.66-2.24-.59-.87-2.15-.45-2.96-.54v4.53h.83v-1.63c.16,0,.4,0,.63,0,.29.55.58,1.09.86,1.64h1.04c-.36-.59-.71-1.17-1.07-1.76Zm-.13-.81c-.25.28-1.02.14-1.34.17v-1.38c.3.03,1.03-.1,1.28.14.32.23.35.83.06,1.08Z" fill="#f0f"/><path d="m21.16,11.51c-.53-1.82-3.14-.1-1.81,1.78.53.71,2.11.52,1.88-.56h-.94v-.66h1.71v1.49c-.9,1.34-3.09,1.27-3.74-.41-.37-1.13-.08-2.08.54-2.73.98-.84,2.88-.63,3.18.85-.27.08-.54.15-.81.23Z" fill="#f0f"/></g></g></svg>